REM DIRINDEX 1\2\4,1\2\5,1\2\6,1\3\7,1\3\8,1\3\9,1\3\10
REM DIRNAME cjc057,folder01,folder02,folder03,folder04,folder05,folder06,folder07,folder08,folder09
TITLE ""
FILE "b_187.mp3" MP3
  TRACK 01 AUDIO
    TITLE "0:"
    INDEX 01 00:00:00
  TRACK 02 AUDIO
    TITLE "7:cjc057_09793"
    INDEX 01 00:00:13
  TRACK 03 AUDIO
    TITLE "0:"
    INDEX 01 00:01:58
  TRACK 04 AUDIO
    TITLE "8:cjc057_09794"
    INDEX 01 00:02:10
  TRACK 05 AUDIO
    TITLE "0:"
    INDEX 01 00:04:54
  TRACK 06 AUDIO
    TITLE "9:cjc057_09795"
    INDEX 01 00:05:18
  TRACK 07 AUDIO
    TITLE "0:"
    INDEX 01 00:08:30
  TRACK 08 AUDIO
    TITLE "7:cjc057_09796"
    INDEX 01 00:09:32
  TRACK 09 AUDIO
    TITLE "0:"
    INDEX 01 00:10:63
  TRACK 10 AUDIO
    TITLE "8:cjc057_09797"
    INDEX 01 00:11:15
  TRACK 11 AUDIO
    TITLE "0:"
    INDEX 01 00:14:11
  TRACK 12 AUDIO
    TITLE "9:cjc057_09798"
    INDEX 01 00:14:47
  TRACK 13 AUDIO
    TITLE "0:"
    INDEX 01 00:17:45
  TRACK 14 AUDIO
    TITLE "7:cjc057_09799"
    INDEX 01 00:18:48
  TRACK 15 AUDIO
    TITLE "0:"
    INDEX 01 00:20:00
  TRACK 16 AUDIO
    TITLE "8:cjc057_09800"
    INDEX 01 00:20:28
  TRACK 17 AUDIO
    TITLE "0:"
    INDEX 01 00:22:72
  TRACK 18 AUDIO
    TITLE "9:cjc057_09801"
    INDEX 01 00:23:38
  TRACK 19 AUDIO
    TITLE "0:"
    INDEX 01 00:27:06
  TRACK 20 AUDIO
    TITLE "7:cjc057_09802"
    INDEX 01 00:28:10
  TRACK 21 AUDIO
    TITLE "0:"
    INDEX 01 00:29:27
  TRACK 22 AUDIO
    TITLE "8:cjc057_09803"
    INDEX 01 00:29:56
  TRACK 23 AUDIO
    TITLE "0:"
    INDEX 01 00:32:11
  TRACK 24 AUDIO
    TITLE "9:cjc057_09804"
    INDEX 01 00:32:47
  TRACK 25 AUDIO
    TITLE "0:"
    INDEX 01 00:36:03
  TRACK 26 AUDIO
    TITLE "7:cjc057_09805"
    INDEX 01 00:37:08
  TRACK 27 AUDIO
    TITLE "0:"
    INDEX 01 00:38:18
  TRACK 28 AUDIO
    TITLE "8:cjc057_09806"
    INDEX 01 00:38:47
  TRACK 29 AUDIO
    TITLE "0:"
    INDEX 01 00:42:10
  TRACK 30 AUDIO
    TITLE "9:cjc057_09807"
    INDEX 01 00:42:45
  TRACK 31 AUDIO
    TITLE "0:"
    INDEX 01 00:46:64
  TRACK 32 AUDIO
    TITLE "7:cjc057_09808"
    INDEX 01 00:47:66
  TRACK 33 AUDIO
    TITLE "0:"
    INDEX 01 00:49:23
  TRACK 34 AUDIO
    TITLE "8:cjc057_09809"
    INDEX 01 00:49:51
  TRACK 35 AUDIO
    TITLE "0:"
    INDEX 01 00:52:10
  TRACK 36 AUDIO
    TITLE "9:cjc057_09810"
    INDEX 01 00:52:47
  TRACK 37 AUDIO
    TITLE "0:"
    INDEX 01 00:56:33
  TRACK 38 AUDIO
    TITLE "7:cjc057_09811"
    INDEX 01 00:57:37
  TRACK 39 AUDIO
    TITLE "0:"
    INDEX 01 00:58:64
  TRACK 40 AUDIO
    TITLE "8:cjc057_09812"
    INDEX 01 00:59:16
  TRACK 41 AUDIO
    TITLE "0:"
    INDEX 01 01:00:37
  TRACK 42 AUDIO
    TITLE "9:cjc057_09813"
    INDEX 01 01:01:03
  TRACK 43 AUDIO
    TITLE "0:"
    INDEX 01 01:05:36
  TRACK 44 AUDIO
    TITLE "7:cjc057_09814"
    INDEX 01 01:06:38
  TRACK 45 AUDIO
    TITLE "0:"
    INDEX 01 01:08:13
  TRACK 46 AUDIO
    TITLE "8:cjc057_09815"
    INDEX 01 01:08:40
  TRACK 47 AUDIO
    TITLE "0:"
    INDEX 01 01:11:15
  TRACK 48 AUDIO
    TITLE "9:cjc057_09816"
    INDEX 01 01:11:54
  TRACK 49 AUDIO
    TITLE "0:"
    INDEX 01 01:14:74
  TRACK 50 AUDIO
    TITLE "7:cjc057_09817"
    INDEX 01 01:16:01
  TRACK 51 AUDIO
    TITLE "0:"
    INDEX 01 01:17:24
  TRACK 52 AUDIO
    TITLE "8:cjc057_09818"
    INDEX 01 01:17:53
  TRACK 53 AUDIO
    TITLE "0:"
    INDEX 01 01:20:36
  TRACK 54 AUDIO
    TITLE "9:cjc057_09819"
    INDEX 01 01:21:04
  TRACK 55 AUDIO
    TITLE "0:"
    INDEX 01 01:24:39
  TRACK 56 AUDIO
    TITLE "7:cjc057_09820"
    INDEX 01 01:25:39
  TRACK 57 AUDIO
    TITLE "0:"
    INDEX 01 01:27:03
  TRACK 58 AUDIO
    TITLE "8:cjc057_09821"
    INDEX 01 01:27:30
  TRACK 59 AUDIO
    TITLE "0:"
    INDEX 01 01:30:01
  TRACK 60 AUDIO
    TITLE "9:cjc057_09822"
    INDEX 01 01:30:40
  TRACK 61 AUDIO
    TITLE "0:"
    INDEX 01 01:34:42
  TRACK 62 AUDIO
    TITLE "7:cjc057_09823"
    INDEX 01 01:35:45
  TRACK 63 AUDIO
    TITLE "0:"
    INDEX 01 01:36:54
  TRACK 64 AUDIO
    TITLE "8:cjc057_09824"
    INDEX 01 01:37:07
  TRACK 65 AUDIO
    TITLE "0:"
    INDEX 01 01:38:51
  TRACK 66 AUDIO
    TITLE "9:cjc057_09825"
    INDEX 01 01:39:10
  TRACK 67 AUDIO
    TITLE "0:"
    INDEX 01 01:43:15
  TRACK 68 AUDIO
    TITLE "7:cjc057_09826"
    INDEX 01 01:44:17
  TRACK 69 AUDIO
    TITLE "0:"
    INDEX 01 01:45:30
  TRACK 70 AUDIO
    TITLE "8:cjc057_09827"
    INDEX 01 01:45:57
  TRACK 71 AUDIO
    TITLE "0:"
    INDEX 01 01:47:48
  TRACK 72 AUDIO
    TITLE "9:cjc057_09828"
    INDEX 01 01:48:12
  TRACK 73 AUDIO
    TITLE "0:"
    INDEX 01 01:51:03
  TRACK 74 AUDIO
    TITLE "7:cjc057_09829"
    INDEX 01 01:52:04
  TRACK 75 AUDIO
    TITLE "0:"
    INDEX 01 01:53:33
  TRACK 76 AUDIO
    TITLE "8:cjc057_09830"
    INDEX 01 01:53:61
  TRACK 77 AUDIO
    TITLE "0:"
    INDEX 01 01:56:39
  TRACK 78 AUDIO
    TITLE "9:cjc057_09831"
    INDEX 01 01:57:04
  TRACK 79 AUDIO
    TITLE "0:"
    INDEX 01 02:00:33
  TRACK 80 AUDIO
    TITLE "7:cjc057_09832"
    INDEX 01 02:01:37
  TRACK 81 AUDIO
    TITLE "0:"
    INDEX 01 02:03:10
  TRACK 82 AUDIO
    TITLE "8:cjc057_09833"
    INDEX 01 02:03:38
  TRACK 83 AUDIO
    TITLE "0:"
    INDEX 01 02:05:38
  TRACK 84 AUDIO
    TITLE "9:cjc057_09834"
    INDEX 01 02:06:03
  TRACK 85 AUDIO
    TITLE "0:"
    INDEX 01 02:10:18
  TRACK 86 AUDIO
    TITLE "7:cjc057_09835"
    INDEX 01 02:11:21
  TRACK 87 AUDIO
    TITLE "0:"
    INDEX 01 02:12:48
  TRACK 88 AUDIO
    TITLE "8:cjc057_09836"
    INDEX 01 02:13:03
  TRACK 89 AUDIO
    TITLE "0:"
    INDEX 01 02:15:45
  TRACK 90 AUDIO
    TITLE "9:cjc057_09837"
    INDEX 01 02:16:09
  TRACK 91 AUDIO
    TITLE "0:"
    INDEX 01 02:19:44
  TRACK 92 AUDIO
    TITLE "7:cjc057_09838"
    INDEX 01 02:20:48
  TRACK 93 AUDIO
    TITLE "0:"
    INDEX 01 02:21:63
  TRACK 94 AUDIO
    TITLE "8:cjc057_09839"
    INDEX 01 02:22:15
  TRACK 95 AUDIO
    TITLE "0:"
    INDEX 01 02:24:44
  TRACK 96 AUDIO
    TITLE "9:cjc057_09840"
    INDEX 01 02:25:08
  TRACK 97 AUDIO
    TITLE "0:"
    INDEX 01 02:28:18
